<mxfile host="app.diagrams.net" modified="2024-02-22T08:22:28.630Z" agent="Mozilla/5.0 (Macintosh; Intel Mac OS X 10.15; rv:122.0) Gecko/20100101 Firefox/122.0" version="23.1.5" etag="MWtxHG71ensM2ciTTVhK" type="github">
  <diagram name="第 1 页" id="bp41AYV3ZoLxS_UVhe02">
    <mxGraphModel>
      <root>
        <mxCell id="0" />
        <mxCell id="1" parent="0" />
      </root>
    </mxGraphModel>
  </diagram>
</mxfile>
